Salt (2010) (Director's Cut) 1080p AC3+DTS Eng-NLSubs-DMT

Verenigde Staten
Actie / Thriller
100 minuten

geregisseerd door Phillip Noyce
met Angelina Jolie, Liev Schreiber en Chiwetel Ejiofor

Evelyn Salt (Angelina Jolie) is een CIA-agente, die ervan wordt beschuldigd een Russische spion 
te zijn die van plan is de president van Rusland te vermoorden. Wanneer ze op de vlucht slaat, 
komen al haar vaardigheden en haar verleden als geheim-agente goed van pas. 
Ze moet er echter voor zorgen om haar naam te zuiveren, voordat de machtigste machten 
ter wereld haar te pakken zullen krijgen en elk spoor van haar bestaan zullen wissen....
---------------------------------------------------------------------------------------------------

PLOT

A CIA agent goes on the run after a defector accuses her of being a Russian spy. 
---------------------------------------------------------------------------------------------------
 
http://www.youtube.com/watch?v=mjOcEvBmYGE

MM:    http://www.moviemeter.nl/film/56511

IMDB:    http://www.imdb.com/title/tt0944835/
---------------------------------------------------------------------------------------------------

INFO

Source........: 1080P BluRay 
FRAME RATE....: 23.976Fps 
VIDEO CODEC...: X264
AUDIO 1.......: DTS 
AUDIO 2.......: AC3  
RESOLUTION....: 1920X800
RUNTIME.......: 144 MINS 
GENERE........: Action | Crime | Mystery
LANGUAGE......: English 
SUBTITLES.....: English & Dutch
Thanks to bradje
---------------------------------------------------------------------------------------------------

Enjoy


General
Complete name                    : Salt.2010.Director's Cut.1080p.AC3.DTS.Eng.NLSubs-DMT.mkv
Format                           : Matroska
File size                        : 9.21 GiB
Duration                         : 1h 44mn
Overall bit rate                 : 12.7 Mbps
Movie name                       : Salt (2010) (Director's Cut) 1080P.X264.NL.SUBBED.Bradje
Encoded date                     : UTC 2010-11-15 17:24:49
Writing application              : mkvmerge v3.3.0 ('Language') built on Mar 24 2010 14:59:24
Writing library                  : libebml v0.8.0 + libmatroska v0.9.0

Video
ID                               : 1
Format                           : AVC
Format/Info                      : Advanced Video Codec
Format profile                   : High@L4.1
Format settings, CABAC           : Yes
Format settings, ReFrames        : 5 frames
Muxing mode                      : Container profile=Unknown@4.1
Codec ID                         : V_MPEG4/ISO/AVC
Duration                         : 1h 44mn
Bit rate                         : 10.5 Mbps
Width                            : 1 920 pixels
Height                           : 800 pixels
Display aspect ratio             : 2.40:1
Frame rate                       : 23.976 fps
Color space                      : YUV
Chroma subsampling               : 4:2:0
Bit depth                        : 8 bits
Scan type                        : Progressive
Bits/(Pixel*Frame)               : 0.286
Stream size                      : 7.46 GiB (81%)
Title                            : x264
Writing library                  : x264 core 98 r1649 20cbe10
Encoding settings                : cabac=1 / ref=5 / deblock=1:-3:-3 / analyse=0x3:0x113 / 
me=umh / subme=9 / psy=1 / psy_rd=1.00:0.00 / mixed_ref=1 / me_range=32 / chroma_me=1 / 
trellis=2 / 8x8dct=1 / cqm=2 / deadzone=21,11 / fast_pskip=0 / chroma_qp_offset=-2 / 
threads=9 / sliced_threads=0 / nr=0 / decimate=0 / interlaced=0 / constrained_intra=0 / 
bframes=5 / b_pyramid=2 / b_adapt=2 / b_bias=0 / direct=3 / weightb=1 / weightp=2 / 
keyint=250 / keyint_min=25 / scenecut=40 / intra_refresh=0 / rc_lookahead=50 / 
rc=2pass / mbtree=1 / bitrate=10524 / ratetol=1.0 / qcomp=0.60 / qpmin=10 / 
qpmax=51 / qpstep=4 / cplxblur=20.0 / qblur=0.5 / vbv_maxrate=50000 / 
vbv_bufsize=50000 / ip_ratio=1.40 / aq=1:0.90 / nal_hrd=none
Language                         : English

Audio #1
ID                               : 2
Format                           : AC-3
Format/Info                      : Audio Coding 3
Mode extension                   : CM (complete main)
Codec ID                         : A_AC3
Duration                         : 1h 44mn
Bit rate mode                    : Constant
Bit rate                         : 640 Kbps
Channel(s)                       : 6 channels
Channel positions                : Front: L C R, Side: L R, LFE
Sampling rate                    : 48.0 KHz
Bit depth                        : 16 bits
Stream size                      : 476 MiB (5%)
Title                            : AC3
Language                         : English

Audio #2
ID                               : 3
Format                           : DTS
Format/Info                      : Digital Theater Systems
Codec ID                         : A_DTS
Duration                         : 1h 44mn
Bit rate mode                    : Constant
Bit rate                         : 1 510 Kbps
Channel(s)                       : 6 channels
Channel positions                : Front: L C R, Side: L R, LFE
Sampling rate                    : 48.0 KHz
Bit depth                        : 24 bits
Stream size                      : 1.10 GiB (12%)
Title                            : DTS
Language                         : English

Text #1
ID                               : 4
Format                           : UTF-8
Codec ID                         : S_TEXT/UTF8
Codec ID/Info                    : UTF-8 Plain Text
Title                            : Subtitles
Language                         : Dutch

Text #2
ID                               : 5
Format                           : UTF-8
Codec ID                         : S_TEXT/UTF8
Codec ID/Info                    : UTF-8 Plain Text
Title                            : Subtitles
Language                         : English

Menu
00:00:00.000                     : en:Video Start
00:05:00.000                     : en:Chapter 1 - 00 Hr 05 Min
00:10:00.000                     : en:Chapter 2 - 00 Hr 10 Min
00:15:00.000                     : en:Chapter 3 - 00 Hr 15 Min
00:20:00.000                     : en:Chapter 4 - 00 Hr 20 Min
00:25:00.000                     : en:Chapter 5 - 00 Hr 25 Min
00:30:00.000                     : en:Chapter 6 - 00 Hr 30 Min
00:35:00.000                     : en:Chapter 7 - 00 Hr 35 Min
00:40:00.000                     : en:Chapter 8 - 00 Hr 40 Min
00:45:00.000                     : en:Chapter 9 - 00 Hr 45 Min
00:50:00.000                     : en:Chapter 10 - 00 Hr 50 Min
00:55:00.000                     : en:Chapter 11 - 00 Hr 55 Min
01:00:00.000                     : en:Chapter 12 - 01 Hr 00 Min
01:05:00.000                     : en:Chapter 13 - 01 Hr 05 Min
01:10:00.000                     : en:Chapter 14 - 01 Hr 10 Min
01:15:00.000                     : en:Chapter 15 - 01 Hr 15 Min
01:20:00.000                     : en:Chapter 16 - 01 Hr 20 Min
01:25:00.000                     : en:Chapter 17 - 01 Hr 25 Min
01:30:00.000                     : en:Chapter 18 - 01 Hr 30 Min
01:35:00.000                     : en:Chapter 19 - 01 Hr 35 Min
01:40:00.000                     : en:Chapter 20 - 01 Hr 40 Min

